<svg width="196" height="222" viewBox="0 0 196 222" fill="none" xmlns="http://www.w3.org/2000/svg">
<path d="M187.864 94.3631C181.627 83.8614 172.864 73.8719 166.947 68.6312C154.031 57.1878 143.257 57.4665 137.983 58.6517C135.767 59.1497 133.732 59.9708 131.941 61.0661C122.739 54.2371 111.544 50.8917 97.9999 50.8917C84.456 50.8917 73.2607 54.2371 64.0587 61.0665C62.2671 59.9712 60.2328 59.1497 58.0171 58.6521C52.7446 57.4673 41.9689 57.1882 29.0536 68.6312C23.1364 73.8723 14.3739 83.8618 8.13555 94.3635C-0.310052 108.581 -2.19119 120.083 2.5442 128.55C8.32619 138.887 17.0964 141.532 24.1765 142.184C22.4363 148.943 21.3617 156.173 21.3617 165.182C21.3617 177.123 24.0797 187.396 29.441 195.716C34.1538 203.031 40.9387 208.888 49.6071 213.126C65.6232 220.954 84.8967 221.86 98.0003 221.86C111.104 221.86 130.378 220.954 146.394 213.126C155.062 208.888 161.847 203.031 166.56 195.716C171.921 187.396 174.639 177.122 174.639 165.182C174.639 156.173 173.564 148.943 171.824 142.184C178.904 141.532 187.675 138.886 193.456 128.549C198.191 120.083 196.31 108.581 187.864 94.3631ZM27.8986 130.368C21.6327 130.203 16.5375 128.99 13.0153 122.693C10.6257 118.421 12.6068 110.328 18.4512 100.49C23.9978 91.1517 31.9591 82.0844 37.0092 77.6105C45.3491 70.2206 51.6012 69.8137 54.5427 70.2076C45.789 80.8789 40.4235 94.7474 35.9365 108.231C34.0783 113.815 32.2876 118.582 30.5549 123.193C29.6285 125.66 28.7374 128.033 27.8986 130.368ZM90.1733 169.702C87.0699 166.6 85.4456 163.344 85.4456 161.731C85.4456 160.29 85.6925 160.187 86.6101 159.801C89.2259 158.7 94.3632 158.573 97.9999 158.573C101.637 158.573 106.774 158.7 109.39 159.801C110.307 160.186 110.554 160.291 110.554 161.731C110.554 163.344 108.93 166.6 105.827 169.702C102.774 172.752 99.5163 174.398 97.9996 174.398C96.4829 174.398 93.2255 172.752 90.1733 169.702ZM141.125 202.348C131.918 206.847 119.73 209.288 103.999 209.772V185.198C108.709 183.38 112.545 179.95 114.308 178.188C116.786 175.711 122.552 169.148 122.552 161.731C122.552 155.664 119.53 151.051 114.042 148.743C110.385 147.204 105.737 146.576 98.0003 146.576C90.2637 146.576 85.6156 147.204 81.9578 148.743C76.471 151.051 73.4487 155.664 73.4487 161.731C73.4487 169.148 79.2142 175.71 81.6925 178.188C83.4558 179.95 87.2919 183.38 92.0017 185.198V209.772C76.2704 209.289 64.0824 206.848 54.8754 202.348C40.3967 195.27 33.3583 183.113 33.3583 165.182C33.3583 149.842 36.8932 140.433 41.7851 127.412C43.4745 122.916 45.3885 117.82 47.3191 112.019C57.923 80.1554 69.1401 62.8886 97.9999 62.8886C126.86 62.8886 138.077 80.1558 148.68 112.019C150.611 117.82 152.525 122.916 154.214 127.412C159.106 140.433 162.641 149.841 162.641 165.182C162.642 183.113 155.603 195.27 141.125 202.348ZM182.985 122.693C179.463 128.991 174.368 130.203 168.102 130.368C167.263 128.032 166.372 125.66 165.446 123.193C163.713 118.582 161.923 113.815 160.064 108.231C155.577 94.7474 150.212 80.8789 141.458 70.2076C144.399 69.8145 150.652 70.2206 158.992 77.6108C164.042 82.084 172.003 91.1509 177.55 100.489C183.394 110.328 185.375 118.421 182.985 122.693Z" fill="#FE5366"/>
<path d="M78.0367 114.653C73.6968 114.653 70.1646 118.221 70.1646 122.627C70.1646 127.033 73.6964 130.604 78.0367 130.604C82.3824 130.604 85.9138 127.032 85.9138 122.627C85.9138 118.221 82.3824 114.653 78.0367 114.653Z" fill="#FE5366"/>
<path d="M117.904 114.591C113.522 114.591 109.967 118.189 109.967 122.627C109.967 127.066 113.522 130.664 117.904 130.664C122.281 130.664 125.836 127.066 125.836 122.627C125.836 118.189 122.281 114.591 117.904 114.591Z" fill="#FE5366"/>
<path fill-rule="evenodd" clip-rule="evenodd" d="M79.8457 31.3751C79.8001 31.39 79.7504 31.3917 79.7036 31.3799C79.6569 31.368 79.6153 31.3433 79.5846 31.3091C76.6979 27.8302 75.9726 21.8494 75.7961 19.5522C75.7599 19.1099 75.2135 18.8613 74.7759 19.0835C65.8619 23.6406 55.3594 63.8629 55.3594 74.2709C55.3594 101.779 70.0098 62.9239 97.3087 62.9239C119.317 62.9239 137.883 87.5633 137.883 70.1447C137.883 47.3528 113.966 6.89537 98.0266 0.0498549C97.9334 0.00982913 97.8301 -0.00657176 97.7275 0.00238031C97.6249 0.0113324 97.5268 0.0453059 97.4437 0.100721C97.3605 0.156137 97.2953 0.230942 97.2549 0.317255C97.2146 0.403568 97.2005 0.498193 97.2143 0.591159C99.2669 12.8739 96.431 26.2327 79.8457 31.3751Z" fill="url(#paint0_radial)"/>
<defs>
<radialGradient id="paint0_radial" cx="0" cy="0" r="1" gradientUnits="userSpaceOnUse" gradientTransform="translate(98.3411 50.9045) scale(79.346 83.0197)">
<stop stop-color="#FF7854"/>
<stop offset="1" stop-color="#FD267D"/>
</radialGradient>
</defs>
</svg>
